# Blender v2.79 (sub 0) OBJ File: ''
# www.blender.org
o Circle
v 0.000000 0.000000 0.000000
v 0.000000 0.000000 -1.000000
v -0.195090 0.000000 -0.980785
v -0.382683 0.000000 -0.923880
v -0.555570 0.000000 -0.831470
v -0.707107 0.000000 -0.707107
v -0.831470 0.000000 -0.555570
v -0.923880 0.000000 -0.382683
v -0.980785 0.000000 -0.195090
v -1.000000 0.000000 -0.000000
v -0.980785 0.000000 0.195090
v -0.923880 0.000000 0.382683
v -0.831470 0.000000 0.555570
v -0.707107 0.000000 0.707107
v -0.555570 0.000000 0.831470
v -0.382683 0.000000 0.923880
v -0.195090 0.000000 0.980785
v 0.000000 0.000000 1.000000
v 0.195091 0.000000 0.980785
v 0.382684 0.000000 0.923879
v 0.555571 0.000000 0.831469
v 0.707107 0.000000 0.707106
v 0.831470 0.000000 0.555570
v 0.923880 0.000000 0.382683
v 0.980785 0.000000 0.195089
v 1.000000 0.000000 -0.000001
v 0.980785 0.000000 -0.195091
v 0.923879 0.000000 -0.382684
v 0.831469 0.000000 -0.555571
v 0.707106 0.000000 -0.707108
v 0.555569 0.000000 -0.831470
v 0.382682 0.000000 -0.923880
v 0.195089 0.000000 -0.980786
v -0.196566 0.455940 -0.988205
v 0.000000 0.197797 -1.137690
v -0.221952 0.197797 -1.115830
v -0.435375 0.197797 -1.051089
v -0.632067 0.197797 -0.945955
v -0.804469 0.197797 -0.804469
v -0.945955 0.197797 -0.632067
v -1.051089 0.197797 -0.435375
v -1.115830 0.197797 -0.221952
v -1.137691 0.197797 -0.000000
v -1.115830 0.197797 0.221952
v -1.051089 0.197797 0.435375
v -0.945955 0.197797 0.632067
v -0.804469 0.197797 0.804469
v -0.632067 0.197797 0.945955
v -0.435375 0.197797 1.051089
v -0.221952 0.197797 1.115830
v 0.000000 0.197797 1.137691
v 0.221953 0.197797 1.115830
v 0.435376 0.197797 1.051089
v 0.632068 0.197797 0.945955
v 0.804469 0.197797 0.804468
v 0.945956 0.197797 0.632066
v 1.051089 0.197797 0.435374
v 1.115830 0.197797 0.221951
v 1.137691 0.197797 -0.000001
v 1.115830 0.197797 -0.221954
v 1.051089 0.197797 -0.435376
v 0.945954 0.197797 -0.632068
v 0.804468 0.197797 -0.804470
v 0.632066 0.197797 -0.945956
v 0.435374 0.197797 -1.051090
v 0.221951 0.197797 -1.115830
v 0.000000 0.392184 -1.257326
v -0.245292 0.392184 -1.233166
v -0.481158 0.392184 -1.161617
v -0.698533 0.392184 -1.045428
v -0.889064 0.392184 -0.889063
v -1.045428 0.392184 -0.698533
v -1.161617 0.392184 -0.481158
v -1.233166 0.392184 -0.245292
v -1.257326 0.392184 -0.000000
v -1.233167 0.392184 0.245292
v -1.161618 0.392184 0.481158
v -1.045428 0.392184 0.698533
v -0.889064 0.392184 0.889064
v -0.698533 0.392184 1.045428
v -0.481157 0.392184 1.161618
v -0.245292 0.392184 1.233167
v 0.000000 0.392184 1.257326
v 0.245293 0.392184 1.233167
v 0.481158 0.392184 1.161617
v 0.698533 0.392184 1.045428
v 0.889064 0.392184 0.889063
v 1.045429 0.392184 0.698532
v 1.161618 0.392184 0.481157
v 1.233167 0.392184 0.245291
v 1.257326 0.392184 -0.000001
v 1.233166 0.392184 -0.245293
v 1.161617 0.392184 -0.481159
v 1.045427 0.392184 -0.698534
v 0.889062 0.392184 -0.889065
v 0.698531 0.392184 -1.045429
v 0.481156 0.392184 -1.161618
v 0.245290 0.392184 -1.233167
v 0.000000 0.589980 -1.257326
v -0.245292 0.589980 -1.233166
v -0.481158 0.589980 -1.161617
v -0.698533 0.589980 -1.045428
v -0.889064 0.589980 -0.889063
v -1.045428 0.589980 -0.698533
v -1.161617 0.589980 -0.481158
v -1.233166 0.589980 -0.245292
v -1.257326 0.589980 -0.000000
v -1.233167 0.589980 0.245292
v -1.161618 0.589980 0.481158
v -1.045428 0.589980 0.698533
v -0.889064 0.589980 0.889064
v -0.698533 0.589980 1.045428
v -0.481157 0.589980 1.161618
v -0.245292 0.589980 1.233167
v 0.000000 0.589980 1.257326
v 0.245293 0.589980 1.233167
v 0.481158 0.589980 1.161617
v 0.698533 0.589980 1.045428
v 0.889064 0.589980 0.889063
v 1.045429 0.589980 0.698532
v 1.161618 0.589980 0.481157
v 1.233167 0.589980 0.245291
v 1.257326 0.589980 -0.000001
v 1.233166 0.589980 -0.245293
v 1.161617 0.589980 -0.481159
v 1.045427 0.589980 -0.698534
v 0.889062 0.589980 -0.889065
v 0.698531 0.589980 -1.045429
v 0.481156 0.589980 -1.161618
v 0.245290 0.589980 -1.233167
v -0.196566 0.589980 -0.988205
v 0.000000 0.589980 -1.007565
v -0.385579 0.589980 -0.930869
v -0.559773 0.589980 -0.837760
v -0.712456 0.589980 -0.712456
v -0.837760 0.589980 -0.559773
v -0.930869 0.589980 -0.385579
v -0.988205 0.589980 -0.196566
v -1.007565 0.589980 -0.000000
v -0.988205 0.589980 0.196566
v -0.930869 0.589980 0.385578
v -0.837760 0.589980 0.559773
v -0.712456 0.589980 0.712456
v -0.559773 0.589980 0.837760
v -0.385578 0.589980 0.930869
v -0.196566 0.589980 0.988205
v 0.000000 0.589980 1.007565
v 0.196567 0.589980 0.988205
v 0.385579 0.589980 0.930869
v 0.559774 0.589980 0.837760
v 0.712457 0.589980 0.712456
v 0.837760 0.589980 0.559773
v 0.930869 0.589980 0.385578
v 0.988205 0.589980 0.196565
v 1.007565 0.589980 -0.000001
v 0.988205 0.589980 -0.196567
v 0.930869 0.589980 -0.385580
v 0.837759 0.589980 -0.559774
v 0.712455 0.589980 -0.712457
v 0.559772 0.589980 -0.837761
v 0.385577 0.589980 -0.930870
v 0.196565 0.589980 -0.988205
v 0.000000 0.455940 -1.007565
v 0.000000 0.455940 0.000000
v -0.385579 0.455940 -0.930869
v -0.559773 0.455940 -0.837760
v -0.712456 0.455940 -0.712456
v -0.837760 0.455940 -0.559773
v -0.930869 0.455940 -0.385579
v -0.988205 0.455940 -0.196566
v -1.007565 0.455940 -0.000000
v -0.988205 0.455940 0.196566
v -0.930869 0.455940 0.385578
v -0.837760 0.455940 0.559773
v -0.712456 0.455940 0.712456
v -0.559773 0.455940 0.837760
v -0.385578 0.455940 0.930869
v -0.196566 0.455940 0.988205
v 0.000000 0.455940 1.007565
v 0.196567 0.455940 0.988205
v 0.385579 0.455940 0.930869
v 0.559774 0.455940 0.837760
v 0.712457 0.455940 0.712456
v 0.837760 0.455940 0.559773
v 0.930869 0.455940 0.385578
v 0.988205 0.455940 0.196565
v 1.007565 0.455940 -0.000001
v 0.988205 0.455940 -0.196567
v 0.930869 0.455940 -0.385580
v 0.837759 0.455940 -0.559774
v 0.712455 0.455940 -0.712457
v 0.559772 0.455940 -0.837761
v 0.385577 0.455940 -0.930870
v 0.196565 0.455940 -0.988205
vn 0.0000 -1.0000 0.0000
vn -0.6592 -0.5223 -0.5410
vn 0.8487 -0.5223 -0.0836
vn 0.2475 -0.5223 0.8160
vn -0.7521 -0.5223 0.4020
vn 0.2475 -0.5223 -0.8160
vn -0.5410 -0.5223 -0.6592
vn 0.8487 -0.5223 0.0836
vn 0.0836 -0.5223 0.8487
vn -0.8160 -0.5223 0.2475
vn 0.4020 -0.5223 -0.7521
vn -0.4020 -0.5223 -0.7521
vn 0.8160 -0.5223 0.2475
vn -0.0836 -0.5223 0.8487
vn -0.8487 -0.5223 0.0836
vn 0.5410 -0.5223 -0.6592
vn -0.2475 -0.5223 -0.8160
vn 0.7521 -0.5223 0.4020
vn -0.2475 -0.5223 0.8160
vn -0.8487 -0.5223 -0.0836
vn 0.6592 -0.5223 -0.5410
vn 0.6592 -0.5223 0.5410
vn -0.4020 -0.5223 0.7521
vn -0.0836 -0.5223 -0.8487
vn -0.8160 -0.5223 -0.2475
vn 0.7521 -0.5223 -0.4020
vn 0.5410 -0.5223 0.6592
vn -0.5410 -0.5223 0.6592
vn -0.7521 -0.5223 -0.4020
vn 0.8160 -0.5223 -0.2475
vn 0.4020 -0.5223 0.7521
vn -0.6592 -0.5223 0.5410
vn 0.0836 -0.5223 -0.8487
vn 0.0806 -0.5695 0.8181
vn 0.8181 -0.5695 0.0806
vn -0.5215 -0.5695 -0.6354
vn 0.2386 -0.5695 -0.7866
vn -0.7250 -0.5695 0.3875
vn 0.2386 -0.5695 0.7866
vn 0.8181 -0.5695 -0.0806
vn -0.6354 -0.5695 -0.5215
vn 0.0806 -0.5695 -0.8181
vn -0.6354 -0.5695 0.5215
vn 0.3875 -0.5695 0.7250
vn 0.7866 -0.5695 -0.2386
vn -0.7250 -0.5695 -0.3875
vn -0.5215 -0.5695 0.6354
vn 0.5215 -0.5695 0.6354
vn 0.7250 -0.5695 -0.3875
vn -0.7866 -0.5695 -0.2386
vn -0.0806 -0.5695 -0.8181
vn -0.3875 -0.5695 0.7250
vn 0.6354 -0.5695 0.5215
vn 0.6354 -0.5695 -0.5215
vn -0.8181 -0.5695 -0.0806
vn -0.2386 -0.5695 0.7866
vn 0.7250 -0.5695 0.3875
vn -0.2386 -0.5695 -0.7866
vn 0.5215 -0.5695 -0.6354
vn -0.8181 -0.5695 0.0806
vn -0.0806 -0.5695 0.8181
vn 0.7866 -0.5695 0.2386
vn -0.3875 -0.5695 -0.7250
vn 0.3875 -0.5695 -0.7250
vn -0.7866 -0.5695 0.2386
vn 0.9952 0.0000 0.0980
vn 0.0980 0.0000 0.9952
vn -0.9569 0.0000 0.2903
vn 0.4714 0.0000 -0.8819
vn -0.4714 0.0000 -0.8819
vn 0.9569 0.0000 0.2903
vn -0.0980 0.0000 0.9952
vn -0.9952 0.0000 0.0980
vn 0.6344 0.0000 -0.7730
vn -0.2903 0.0000 -0.9569
vn 0.8819 0.0000 0.4714
vn -0.2903 0.0000 0.9569
vn -0.9952 0.0000 -0.0980
vn 0.7730 0.0000 -0.6344
vn 0.7730 0.0000 0.6344
vn -0.4714 0.0000 0.8819
vn -0.0980 0.0000 -0.9952
vn -0.9569 0.0000 -0.2903
vn 0.8819 0.0000 -0.4714
vn 0.6344 0.0000 0.7730
vn -0.6344 0.0000 0.7730
vn -0.8819 0.0000 -0.4714
vn 0.9569 0.0000 -0.2903
vn 0.4714 0.0000 0.8819
vn -0.7730 0.0000 0.6344
vn 0.0980 0.0000 -0.9952
vn -0.7730 0.0000 -0.6344
vn 0.9952 0.0000 -0.0980
vn 0.2903 0.0000 0.9569
vn -0.8819 0.0000 0.4714
vn 0.2903 0.0000 -0.9569
vn -0.6344 0.0000 -0.7730
vn 0.0000 1.0000 0.0000
s off
f 1//1 3//1 2//1
f 1//1 4//1 3//1
f 1//1 5//1 4//1
f 1//1 6//1 5//1
f 1//1 7//1 6//1
f 1//1 8//1 7//1
f 1//1 9//1 8//1
f 1//1 10//1 9//1
f 1//1 11//1 10//1
f 1//1 12//1 11//1
f 1//1 13//1 12//1
f 1//1 14//1 13//1
f 1//1 15//1 14//1
f 1//1 16//1 15//1
f 1//1 17//1 16//1
f 1//1 18//1 17//1
f 1//1 19//1 18//1
f 1//1 20//1 19//1
f 1//1 21//1 20//1
f 1//1 22//1 21//1
f 1//1 23//1 22//1
f 1//1 24//1 23//1
f 1//1 25//1 24//1
f 1//1 26//1 25//1
f 1//1 27//1 26//1
f 1//1 28//1 27//1
f 1//1 29//1 28//1
f 1//1 30//1 29//1
f 1//1 31//1 30//1
f 1//1 32//1 31//1
f 1//1 33//1 32//1
f 1//1 2//1 33//1
f 39//2 40//2 72//2 71//2
f 59//3 60//3 92//3 91//3
f 52//4 53//4 85//4 84//4
f 45//5 46//5 78//5 77//5
f 65//6 66//6 98//6 97//6
f 38//7 39//7 71//7 70//7
f 58//8 59//8 91//8 90//8
f 51//9 52//9 84//9 83//9
f 44//10 45//10 77//10 76//10
f 64//11 65//11 97//11 96//11
f 37//12 38//12 70//12 69//12
f 57//13 58//13 90//13 89//13
f 50//14 51//14 83//14 82//14
f 43//15 44//15 76//15 75//15
f 63//16 64//16 96//16 95//16
f 36//17 37//17 69//17 68//17
f 56//18 57//18 89//18 88//18
f 49//19 50//19 82//19 81//19
f 42//20 43//20 75//20 74//20
f 62//21 63//21 95//21 94//21
f 55//22 56//22 88//22 87//22
f 48//23 49//23 81//23 80//23
f 35//24 36//24 68//24 67//24
f 41//25 42//25 74//25 73//25
f 61//26 62//26 94//26 93//26
f 54//27 55//27 87//27 86//27
f 47//28 48//28 80//28 79//28
f 40//29 41//29 73//29 72//29
f 60//30 61//30 93//30 92//30
f 53//31 54//31 86//31 85//31
f 46//32 47//32 79//32 78//32
f 66//33 35//33 67//33 98//33
f 18//34 19//34 52//34 51//34
f 25//35 26//35 59//35 58//35
f 5//36 6//36 39//36 38//36
f 32//37 33//37 66//37 65//37
f 12//38 13//38 46//38 45//38
f 19//39 20//39 53//39 52//39
f 26//40 27//40 60//40 59//40
f 6//41 7//41 40//41 39//41
f 33//42 2//42 35//42 66//42
f 13//43 14//43 47//43 46//43
f 20//44 21//44 54//44 53//44
f 27//45 28//45 61//45 60//45
f 7//46 8//46 41//46 40//46
f 14//47 15//47 48//47 47//47
f 21//48 22//48 55//48 54//48
f 28//49 29//49 62//49 61//49
f 8//50 9//50 42//50 41//50
f 2//51 3//51 36//51 35//51
f 15//52 16//52 49//52 48//52
f 22//53 23//53 56//53 55//53
f 29//54 30//54 63//54 62//54
f 9//55 10//55 43//55 42//55
f 16//56 17//56 50//56 49//56
f 23//57 24//57 57//57 56//57
f 3//58 4//58 37//58 36//58
f 30//59 31//59 64//59 63//59
f 10//60 11//60 44//60 43//60
f 17//61 18//61 51//61 50//61
f 24//62 25//62 58//62 57//62
f 4//63 5//63 38//63 37//63
f 31//64 32//64 65//64 64//64
f 11//65 12//65 45//65 44//65
f 90//66 91//66 123//66 122//66
f 83//67 84//67 116//67 115//67
f 76//68 77//68 109//68 108//68
f 96//69 97//69 129//69 128//69
f 69//70 70//70 102//70 101//70
f 89//71 90//71 122//71 121//71
f 82//72 83//72 115//72 114//72
f 75//73 76//73 108//73 107//73
f 95//74 96//74 128//74 127//74
f 68//75 69//75 101//75 100//75
f 88//76 89//76 121//76 120//76
f 81//77 82//77 114//77 113//77
f 74//78 75//78 107//78 106//78
f 94//79 95//79 127//79 126//79
f 87//80 88//80 120//80 119//80
f 80//81 81//81 113//81 112//81
f 67//82 68//82 100//82 99//82
f 73//83 74//83 106//83 105//83
f 93//84 94//84 126//84 125//84
f 86//85 87//85 119//85 118//85
f 79//86 80//86 112//86 111//86
f 72//87 73//87 105//87 104//87
f 92//88 93//88 125//88 124//88
f 85//89 86//89 118//89 117//89
f 78//90 79//90 111//90 110//90
f 98//91 67//91 99//91 130//91
f 71//92 72//92 104//92 103//92
f 91//93 92//93 124//93 123//93
f 84//94 85//94 117//94 116//94
f 77//95 78//95 110//95 109//95
f 97//96 98//96 130//96 129//96
f 70//97 71//97 103//97 102//97
f 110//98 111//98 143//98 142//98
f 130//98 99//98 132//98 162//98
f 103//98 104//98 136//98 135//98
f 123//98 124//98 156//98 155//98
f 116//98 117//98 149//98 148//98
f 109//98 110//98 142//98 141//98
f 129//98 130//98 162//98 161//98
f 102//98 103//98 135//98 134//98
f 122//98 123//98 155//98 154//98
f 115//98 116//98 148//98 147//98
f 108//98 109//98 141//98 140//98
f 128//98 129//98 161//98 160//98
f 101//98 102//98 134//98 133//98
f 121//98 122//98 154//98 153//98
f 114//98 115//98 147//98 146//98
f 107//98 108//98 140//98 139//98
f 127//98 128//98 160//98 159//98
f 100//98 101//98 133//98 131//98
f 120//98 121//98 153//98 152//98
f 113//98 114//98 146//98 145//98
f 106//98 107//98 139//98 138//98
f 126//98 127//98 159//98 158//98
f 119//98 120//98 152//98 151//98
f 112//98 113//98 145//98 144//98
f 99//98 100//98 131//98 132//98
f 105//98 106//98 138//98 137//98
f 125//98 126//98 158//98 157//98
f 118//98 119//98 151//98 150//98
f 111//98 112//98 144//98 143//98
f 104//98 105//98 137//98 136//98
f 124//98 125//98 157//98 156//98
f 117//98 118//98 150//98 149//98
f 157//95 158//95 190//95 189//95
f 150//97 151//97 183//97 182//97
f 143//74 144//74 176//74 175//74
f 136//76 137//76 169//76 168//76
f 156//68 157//68 189//68 188//68
f 149//70 150//70 182//70 181//70
f 142//79 143//79 175//79 174//79
f 162//72 132//72 163//72 194//72
f 135//80 136//80 168//80 167//80
f 155//73 156//73 188//73 187//73
f 148//75 149//75 181//75 180//75
f 141//84 142//84 174//84 173//84
f 161//77 162//77 194//77 193//77
f 134//85 135//85 167//85 166//85
f 154//78 155//78 187//78 186//78
f 147//82 148//82 180//82 179//82
f 140//88 141//88 173//88 172//88
f 160//81 161//81 193//81 192//81
f 133//89 134//89 166//89 165//89
f 153//83 154//83 186//83 185//83
f 146//91 147//91 179//91 178//91
f 139//93 140//93 172//93 171//93
f 159//86 160//86 192//86 191//86
f 131//94 133//94 165//94 34//94
f 152//87 153//87 185//87 184//87
f 145//96 146//96 178//96 177//96
f 138//66 139//66 171//66 170//66
f 158//90 159//90 191//90 190//90
f 151//92 152//92 184//92 183//92
f 144//69 145//69 177//69 176//69
f 132//67 131//67 34//67 163//67
f 137//71 138//71 170//71 169//71
f 164//98 163//98 34//98
f 164//98 34//98 165//98
f 164//98 165//98 166//98
f 164//98 166//98 167//98
f 164//98 167//98 168//98
f 164//98 168//98 169//98
f 164//98 169//98 170//98
f 164//98 170//98 171//98
f 164//98 171//98 172//98
f 164//98 172//98 173//98
f 164//98 173//98 174//98
f 164//98 174//98 175//98
f 164//98 175//98 176//98
f 164//98 176//98 177//98
f 164//98 177//98 178//98
f 164//98 178//98 179//98
f 164//98 179//98 180//98
f 164//98 180//98 181//98
f 164//98 181//98 182//98
f 164//98 182//98 183//98
f 164//98 183//98 184//98
f 164//98 184//98 185//98
f 164//98 185//98 186//98
f 164//98 186//98 187//98
f 164//98 187//98 188//98
f 164//98 188//98 189//98
f 164//98 189//98 190//98
f 164//98 190//98 191//98
f 164//98 191//98 192//98
f 164//98 192//98 193//98
f 164//98 193//98 194//98
f 164//98 194//98 163//98
